<svg width="25" height="22" viewBox="0 0 25 22" fill="none" xmlns="http://www.w3.org/2000/svg">
<path d="M10.6396 4.55039L16.6357 9.82695C16.9873 10.1363 17.1875 10.5617 17.1875 11C17.1875 11.4383 16.9873 11.8637 16.6357 12.173L10.6396 17.4496C10.3271 17.7246 9.90723 17.875 9.46777 17.875C8.55469 17.875 7.8125 17.2219 7.8125 16.4184V13.75H1.5625C0.698242 13.75 0 13.1355 0 12.375V9.625C0 8.86445 0.698242 8.25 1.5625 8.25H7.8125V5.58164C7.8125 4.77812 8.55469 4.125 9.46777 4.125C9.90723 4.125 10.3271 4.27969 10.6396 4.55039ZM17.1875 17.875H20.3125C21.1768 17.875 21.875 17.2605 21.875 16.5V5.5C21.875 4.73945 21.1768 4.125 20.3125 4.125H17.1875C16.3232 4.125 15.625 3.51055 15.625 2.75C15.625 1.98945 16.3232 1.375 17.1875 1.375H20.3125C22.9004 1.375 25 3.22266 25 5.5V16.5C25 18.7773 22.9004 20.625 20.3125 20.625H17.1875C16.3232 20.625 15.625 20.0105 15.625 19.25C15.625 18.4895 16.3232 17.875 17.1875 17.875Z" fill="white"/>
</svg>
